grf
version=1
nRows=14
nColumns=37
inDegrees=no
endheader
time	ground_force_1_vx	ground_force_1_vy	ground_force_1_vz	ground_force_1_px	ground_force_1_py	ground_force_1_pz	ground_moment_1_mx	ground_moment_1_my	ground_moment_1_mz	ground_force_2_vx	ground_force_2_vy	ground_force_2_vz	ground_force_2_px	ground_force_2_py	ground_force_2_pz	ground_moment_2_mx	ground_moment_2_my	ground_moment_2_mz	ground_force_3_vx	ground_force_3_vy	ground_force_3_vz	ground_force_3_px	ground_force_3_py	ground_force_3_pz	ground_moment_3_mx	ground_moment_3_my	ground_moment_3_mz	ground_force_4_vx	ground_force_4_vy	ground_force_4_vz	ground_force_4_px	ground_force_4_py	ground_force_4_pz	ground_moment_4_mx	ground_moment_4_my	ground_moment_4_mz
      0.00000000	      0.00000000	     -0.00000000	      0.00000000	      0.00000000	      0.00000000	      0.00000000	      0.00000000	      0.00000000	      0.00000000	    -18.23051071	     32.25972366	   -362.59085083	   -266.68118182	  -1047.59558753	      0.00000000	      0.00000000	      0.00000000	   2960.90135060	     16.28904806	    -34.26881551	   -620.64154053	   -351.72040373	   -755.87313759	      0.00000000	      0.00000000	     -0.00000000	   -307.69864570	      0.00000000	     -0.00000000	      0.00000000	      0.00000000	      0.00000000	      0.00000000	      0.00000000	      0.00000000	      0.00000000
      0.01000000	      0.00000000	     -0.00000000	      0.00000000	      0.00000000	      0.00000000	      0.00000000	      0.00000000	      0.00000000	      0.00000000	    -18.64015770	     32.07128525	   -363.46505737	   -266.11010676	  -1048.08313611	      0.00000000	      0.00000000	      0.00000000	   2775.30957121	     16.78801047	    -34.19718317	   -620.31048584	   -351.60467797	   -756.36889959	      0.00000000	     -0.00000000	     -0.00000000	   -521.43245374	      0.00000000	     -0.00000000	      0.00000000	      0.00000000	      0.00000000	      0.00000000	      0.00000000	      0.00000000	      0.00000000
      0.02000000	      0.00000000	     -0.00000000	      0.00000000	      0.00000000	      0.00000000	      0.00000000	      0.00000000	      0.00000000	      0.00000000	    -17.90833282	     32.29221725	   -363.77532959	   -266.44059130	  -1048.12963837	      0.00000000	      0.00000000	      0.00000000	   2764.84705230	     16.80515946	    -33.94864039	   -621.05340576	   -352.31320471	   -755.89445654	      0.00000000	      0.00000000	     -0.00000000	   -470.58145487	      0.00000000	     -0.00000000	      0.00000000	      0.00000000	      0.00000000	      0.00000000	      0.00000000	      0.00000000	      0.00000000
      0.03000000	      0.00000000	     -0.00000000	      0.00000000	      0.00000000	      0.00000000	      0.00000000	      0.00000000	      0.00000000	      0.00000000	    -18.48200035	     32.24979782	   -363.53106689	   -266.94099437	  -1046.99799869	      0.00000000	      0.00000000	     -0.00000000	   2728.77303244	     17.10466853	    -33.76562268	   -620.79162598	   -352.43715374	   -756.49854729	      0.00000000	      0.00000000	     -0.00000000	   -609.69072617	      0.00000000	     -0.00000000	      0.00000000	      0.00000000	      0.00000000	      0.00000000	      0.00000000	      0.00000000	      0.00000000
      0.04000000	      0.00000000	     -0.00000000	      0.00000000	      0.00000000	      0.00000000	      0.00000000	      0.00000000	      0.00000000	      0.00000000	    -18.52519226	     32.63444138	   -364.17889404	   -266.20243897	  -1046.49863937	      0.00000000	     -0.00000000	      0.00000000	   2674.70446080	     16.81548585	    -33.97123102	   -620.79162598	   -352.58069843	   -756.81611055	      0.00000000	      0.00000000	     -0.00000000	   -480.88071338	      0.00000000	     -0.00000000	      0.00000000	      0.00000000	      0.00000000	      0.00000000	      0.00000000	      0.00000000	      0.00000000
      0.05000000	      0.00000000	     -0.00000000	      0.00000000	      0.00000000	      0.00000000	      0.00000000	      0.00000000	      0.00000000	      0.00000000	    -18.19894409	     32.62172699	   -363.08462524	   -265.69800405	  -1045.23835700	      0.00000000	      0.00000000	      0.00000000	   2855.44912226	     17.22617428	    -33.53877790	   -623.74169922	   -352.65043307	   -755.89802917	      0.00000000	     -0.00000000	     -0.00000000	   -421.91578067	      0.00000000	     -0.00000000	      0.00000000	      0.00000000	      0.00000000	      0.00000000	      0.00000000	      0.00000000	      0.00000000
      0.06000000	      0.00000000	     -0.00000000	      0.00000000	      0.00000000	      0.00000000	      0.00000000	      0.00000000	      0.00000000	      0.00000000	    -18.34723091	     32.88792419	   -367.24276733	   -266.73938655	  -1048.01311480	      0.00000000	      0.00000000	      0.00000000	   2872.17860469	     17.20167246	    -33.79504163	   -623.04602051	   -352.90734079	   -757.14715016	      0.00000000	      0.00000000	     -0.00000000	   -447.31764660	      0.00000000	     -0.00000000	      0.00000000	      0.00000000	      0.00000000	      0.00000000	      0.00000000	      0.00000000	      0.00000000
      0.07000000	      0.00000000	     -0.00000000	      0.00000000	      0.00000000	      0.00000000	      0.00000000	      0.00000000	      0.00000000	      0.00000000	    -18.95652390	     32.32493973	   -367.13150024	   -265.97384525	  -1045.98946157	      0.00000000	      0.00000000	      0.00000000	   2569.93852283	     17.29860009	    -33.93149336	   -625.14123535	   -352.75373064	   -755.82526105	      0.00000000	      0.00000000	     -0.00000000	   -388.69036297	      0.00000000	     -0.00000000	      0.00000000	      0.00000000	      0.00000000	      0.00000000	      0.00000000	      0.00000000	      0.00000000
      0.08000000	      0.00000000	     -0.00000000	      0.00000000	      0.00000000	      0.00000000	      0.00000000	      0.00000000	      0.00000000	      0.00000000	    -18.79375839	     32.97848511	   -369.25009155	   -267.14728726	  -1047.32916297	      0.00000000	      0.00000000	     -0.00000000	   2700.71267894	     17.69442452	    -33.94049608	   -624.56958008	   -353.21541221	   -756.20026686	      0.00000000	      0.00000000	     -0.00000000	   -807.47869203	      0.00000000	     -0.00000000	      0.00000000	      0.00000000	      0.00000000	      0.00000000	      0.00000000	      0.00000000	      0.00000000
      0.09000000	      0.00000000	     -0.00000000	      0.00000000	      0.00000000	      0.00000000	      0.00000000	      0.00000000	      0.00000000	      0.00000000	    -18.74892998	     33.08209229	   -369.77941895	   -266.76219756	  -1047.41400843	      0.00000000	      0.00000000	      0.00000000	   2641.18039956	     17.28278819	    -33.75462874	   -625.80413818	   -353.53783764	   -756.17611267	      0.00000000	      0.00000000	     -0.00000000	   -588.01042752	      0.00000000	     -0.00000000	      0.00000000	      0.00000000	      0.00000000	      0.00000000	      0.00000000	      0.00000000	      0.00000000
      0.10000000	      0.00000000	     -0.00000000	      0.00000000	      0.00000000	      0.00000000	      0.00000000	      0.00000000	      0.00000000	      0.00000000	    -19.10564041	     33.60382462	   -370.71682739	   -267.64003965	  -1045.91355307	      0.00000000	     -0.00000000	      0.00000000	   2502.41664956	     17.50738230	    -33.82721100	   -624.34478760	   -353.66648130	   -757.35655944	      0.00000000	      0.00000000	     -0.00000000	   -603.67351807	      0.00000000	     -0.00000000	      0.00000000	      0.00000000	      0.00000000	      0.00000000	      0.00000000	      0.00000000	      0.00000000
      0.11000000	      0.00000000	     -0.00000000	      0.00000000	      0.00000000	      0.00000000	      0.00000000	      0.00000000	      0.00000000	      0.00000000	    -18.91262817	     33.54433441	   -372.48080444	   -267.44259659	  -1046.79355191	      0.00000000	     -0.00000000	      0.00000000	   2562.09970204	     17.04802977	    -34.23319775	   -625.94934082	   -353.76588441	   -756.61875817	      0.00000000	     -0.00000000	     -0.00000000	   -578.37660408	      0.00000000	     -0.00000000	      0.00000000	      0.00000000	      0.00000000	      0.00000000	      0.00000000	      0.00000000	      0.00000000
      0.12000000	      0.00000000	     -0.00000000	      0.00000000	      0.00000000	      0.00000000	      0.00000000	      0.00000000	      0.00000000	      0.00000000	    -19.20586967	     33.24564362	   -373.49389648	   -267.23367745	  -1047.51936717	      0.00000000	      0.00000000	      0.00000000	   2528.72198018	     17.40275469	    -33.79645690	   -624.52624512	   -353.85793908	   -757.22207203	      0.00000000	      0.00000000	     -0.00000000	   -701.32919994	      0.00000000	     -0.00000000	      0.00000000	      0.00000000	      0.00000000	      0.00000000	      0.00000000	      0.00000000	      0.00000000
      0.13000000	      0.00000000	     -0.00000000	      0.00000000	      0.00000000	      0.00000000	      0.00000000	      0.00000000	      0.00000000	      0.00000000	    -19.74775505	     33.48456573	   -374.03237915	   -268.29008445	  -1048.61171995	      0.00000000	      0.00000000	      0.00000000	   2315.21561063	     17.63810628	    -33.50116502	   -624.86071777	   -353.87286369	   -756.50415022	      0.00000000	      0.00000000	     -0.00000000	   -785.20989119	      0.00000000	     -0.00000000	      0.00000000	      0.00000000	      0.00000000	      0.00000000	      0.00000000	      0.00000000	      0.00000000
